<svg width="71" height="71" viewBox="0 0 71 71" fill="none" xmlns="http://www.w3.org/2000/svg">
<path fill-rule="evenodd" clip-rule="evenodd" d="M39.3695 41.7125C39.902 42.387 40.541 43.1502 40.541 43.1502C44.4637 43.026 45.9725 40.4522 45.9725 40.4522C45.9725 34.7367 43.4165 30.104 43.4165 30.104C40.8605 28.187 38.4287 28.2402 38.4287 28.2402L38.1803 28.5242C41.1978 29.4472 42.6 30.7785 42.6 30.7785C40.754 29.7668 38.9435 29.2698 37.2572 29.0745C35.9792 28.9325 34.7545 28.968 33.6717 29.11C33.5788 29.11 33.4993 29.1235 33.4098 29.1388L33.37 29.1455C32.7488 29.1987 31.24 29.4295 29.3407 30.2638C28.684 30.5655 28.2935 30.7785 28.2935 30.7785C28.2935 30.7785 29.7667 29.3762 32.9617 28.4533L32.7843 28.2402C32.7843 28.2402 30.3525 28.187 27.7965 30.104C27.7965 30.104 25.2405 34.7367 25.2405 40.4522C25.2405 40.4522 26.7315 43.026 30.6542 43.1502C30.6542 43.1502 31.311 42.3515 31.8435 41.677C29.5893 41.0025 28.7372 39.5825 28.7372 39.5825C28.7372 39.5825 28.9147 39.7067 29.2342 39.8842C29.252 39.902 29.2697 39.9198 29.3053 39.9375C29.3319 39.9553 29.3585 39.9686 29.3851 39.9819C29.4118 39.9952 29.4384 40.0085 29.465 40.0262C29.9087 40.2748 30.3525 40.47 30.7608 40.6297C31.4885 40.9137 32.3582 41.1977 33.37 41.393C34.7012 41.6415 36.2632 41.7303 37.9672 41.4107C38.8015 41.2688 39.6535 41.0202 40.541 40.6475C41.1623 40.4167 41.8545 40.0795 42.5822 39.6002C42.5822 39.6002 41.6947 41.0557 39.3695 41.7125ZM30.4768 36.8313C30.4768 35.7485 31.2755 34.861 32.2873 34.861C33.299 34.861 34.1155 35.7485 34.0978 36.8313C34.0978 37.914 33.299 38.8015 32.2873 38.8015C31.2933 38.8015 30.4768 37.914 30.4768 36.8313ZM36.9555 36.8313C36.9555 35.7485 37.7543 34.861 38.766 34.861C39.7778 34.861 40.5765 35.7485 40.5765 36.8313C40.5765 37.914 39.7778 38.8015 38.766 38.8015C37.772 38.8015 36.9555 37.914 36.9555 36.8313Z" fill="black"/>
<path fill-rule="evenodd" clip-rule="evenodd" d="M35.5 0C55.1061 0 71 15.8939 71 35.5C71 55.1061 55.1061 71 35.5 71C15.8939 71 0 55.1061 0 35.5C0 15.8939 15.8939 0 35.5 0ZM19.9688 23.6252C19.9688 21.6018 21.6018 19.9688 23.6075 19.9688H47.3925C49.3982 19.9688 51.0312 21.6018 51.0312 23.6252V55.4688L47.215 52.0962L45.0672 50.1082L42.7953 47.996L43.736 51.2797H23.6075C21.6018 51.2797 19.9688 49.6467 19.9688 47.6233V23.6252Z" fill="black"/>
</svg>
