<svg width="71" height="71" viewBox="0 0 71 71" fill="none" xmlns="http://www.w3.org/2000/svg">
<path fill-rule="evenodd" clip-rule="evenodd" d="M0 35.5C0 15.8939 15.8939 0 35.5 0C55.1061 0 71 15.8939 71 35.5C71 55.1061 55.1061 71 35.5 71C15.8939 71 0 55.1061 0 35.5ZM17.75 35.8717C17.75 26.1011 25.675 18.176 35.4457 18.176C45.2164 18.176 53.1414 26.1011 53.25 35.8717C53.25 43.6882 48.2561 50.3106 41.1995 52.6989C40.331 52.8075 40.0053 52.2647 40.0053 51.8304V46.9451C40.0053 45.3167 39.4626 44.231 38.8112 43.6882C42.7195 43.254 46.8448 41.8427 46.8448 35.0032C46.8448 33.0491 46.0848 31.4206 44.9993 30.2265C45.0078 30.1924 45.0197 30.1495 45.034 30.0984C45.2001 29.4989 45.6824 27.759 44.7821 25.5583C44.7821 25.5583 43.2622 25.124 39.8967 27.4038C38.4855 27.0781 36.9655 26.861 35.4457 26.861C33.9259 26.861 32.406 26.9696 30.9947 27.4038C27.6292 25.124 26.1093 25.5583 26.1093 25.5583C25.1499 27.9037 25.7607 29.7257 25.8859 30.0989L25.8922 30.1179C24.6979 31.4206 24.0466 32.9405 24.0466 34.8947C24.0466 41.7341 28.1721 43.254 32.0803 43.6882C31.646 44.1225 31.1033 44.8824 30.9947 46.0766C30.0176 46.5109 27.5207 47.2708 25.8922 44.5567C25.8922 44.5567 24.9152 42.8197 23.1781 42.7112C23.1781 42.7112 21.4412 42.7112 23.0696 43.7968C23.0696 43.7968 24.2638 44.3396 25.0236 46.4023C25.0236 46.4023 26.1093 49.8763 30.9947 48.7907V51.8304C30.9947 52.2647 30.669 52.8075 29.8005 52.6989C22.8524 50.3106 17.75 43.6882 17.75 35.8717Z" fill="black"/>
</svg>
