<svg width="70" height="70" viewBox="0 0 70 70" fill="none" xmlns="http://www.w3.org/2000/svg">
<path d="M62.5 0H7.5C3.35938 0 0 3.35938 0 7.5V62.5C0 66.6406 3.35938 70 7.5 70H62.5C66.6406 70 70 66.6406 70 62.5V7.5C70 3.35938 66.6406 0 62.5 0ZM54.8594 24.8125C54.8906 25.25 54.8906 25.7031 54.8906 26.1406C54.8906 39.6875 44.5781 55.2969 25.7344 55.2969C19.9219 55.2969 14.5312 53.6094 10 50.7031C10.8281 50.7969 11.625 50.8281 12.4688 50.8281C17.2656 50.8281 21.6719 49.2031 25.1875 46.4531C20.6875 46.3594 16.9062 43.4062 15.6094 39.3438C17.1875 39.5781 18.6094 39.5781 20.2344 39.1562C15.5469 38.2031 12.0312 34.0781 12.0312 29.0938V28.9688C13.3906 29.7344 14.9844 30.2031 16.6562 30.2656C15.2507 29.3307 14.0984 28.0623 13.3023 26.5737C12.5062 25.0851 12.091 23.4225 12.0938 21.7344C12.0938 19.8281 12.5938 18.0781 13.4844 16.5625C18.5312 22.7812 26.1094 26.8438 34.6094 27.2812C33.1562 20.3281 38.3594 14.6875 44.6094 14.6875C47.5625 14.6875 50.2188 15.9219 52.0938 17.9219C54.4062 17.4844 56.625 16.625 58.5938 15.4531C57.8281 17.8281 56.2188 19.8281 54.0938 21.0938C56.1562 20.875 58.1562 20.2969 60 19.5C58.6094 21.5469 56.8594 23.3594 54.8594 24.8125Z" fill="black"/>
</svg>
